<?xml version="1.0" encoding="iso-8859-1"?>
<!-- Generator: Adobe Illustrator 19.0.0, SVG Export Plug-In . SVG Version: 6.00 Build 0)  -->
<svg xmlns="http://www.w3.org/2000/svg" xmlns:xlink="http://www.w3.org/1999/xlink" version="1.1" id="Layer_1" x="0px" y="0px" viewBox="0 0 297 297" style="enable-background:new 0 0 297 297;" xml:space="preserve" width="512px" height="512px">
<g>
	<g>
		<g>
			<path d="M42.352,106.148C18.999,106.148,0,125.147,0,148.5c0,23.353,18.999,42.352,42.352,42.352     c23.353,0,42.352-18.999,42.352-42.352C84.704,125.147,65.705,106.148,42.352,106.148z" fill="#faa61f"/>
			<path d="M148.5,106.148c-23.353,0-42.352,18.999-42.352,42.352c0,23.353,18.999,42.352,42.352,42.352     s42.352-18.999,42.352-42.352C190.852,125.147,171.853,106.148,148.5,106.148z" fill="#faa61f"/>
			<path d="M254.648,106.148c-23.353,0-42.352,18.999-42.352,42.352c0,23.353,18.999,42.352,42.352,42.352S297,171.853,297,148.5     C297,125.147,278.001,106.148,254.648,106.148z" fill="#faa61f"/>
		</g>
	</g>
</g>
<g>
</g>
<g>
</g>
<g>
</g>
<g>
</g>
<g>
</g>
<g>
</g>
<g>
</g>
<g>
</g>
<g>
</g>
<g>
</g>
<g>
</g>
<g>
</g>
<g>
</g>
<g>
</g>
<g>
</g>
</svg>
